<svg xmlns="http://www.w3.org/2000/svg" width="600" height="600" fill="none" viewBox="0 0 600 600"><path fill="#fedd00" d="M415.535 183.323v22.076c-.155 21.455-6.063 28.918-27.36 34.204-13.835 3.42-27.67 6.374-41.661 9.639-13.679 3.265-13.99 3.731-11.348 16.791 2.643 12.904 5.13 25.808 8.084 38.712 3.109 13.992 5.13 15.08 19.898 11.971 13.99-2.954 27.826-6.375 41.816-8.862 19.276-3.576 28.448 1.244 36.065 19.589 10.726 25.808 21.763 51.461 33.733 76.802 8.395 17.724 4.353 30.006-12.436 40.267-13.991 8.551-28.137 16.791-42.438 24.564-21.608 11.66-34.511 7.618-46.791-14.303-6.374-11.505-12.437-23.321-19.121-34.67-5.752-9.794-7.773-10.416-17.566-5.13-12.903 6.996-25.805 14.303-38.397 21.921-9.793 6.063-10.26 7.618-4.974 17.879 6.529 12.593 13.835 24.875 20.364 37.468 10.571 20.367 7.151 33.426-12.281 45.242a1081 1081 0 0 1-41.039 23.787c-20.52 11.038-34.977 6.219-44.77-15.236-20.52-44.62-39.485-89.706-55.963-135.881-1.088-2.954-2.021-6.063-2.954-9.017-6.529-23.165 1.089-36.38 24.562-42.132a2067 2067 0 0 1 44.615-10.262c7.617-1.71 10.415-5.285 8.549-13.37-3.419-14.925-5.751-30.006-9.327-44.931-2.642-11.66-4.197-12.282-16.788-9.483-14.924 3.265-30.003 6.218-44.615 10.416-20.675 5.908-37.153-9.173-38.241-27.984-2.177-34.67-5.441-69.34-5.13-104.165 0-5.286.311-10.572 1.243-15.703 1.866-11.66 9.017-18.5 20.365-21.61 13.524-3.576 27.204-2.176 40.883-2.176 36.532 0 31.091 1.399 31.713-31.405 0-9.018 0-17.88.621-26.897 1.244-18.811 10.416-27.673 29.07-28.14C261.327 32.984 278.737 32.828 296.148 33.295c18.188.467 28.292 10.106 29.536 28.296.777 11.505.311 23.165.311 34.825 0 27.829-.622 25.342 26.271 25.497h28.448c22.385.467 32.645 10.417 33.733 32.96.466 9.483 0 18.967 0 28.451h1.088"/></svg>