<svg xmlns="http://www.w3.org/2000/svg" width="600" height="600" viewBox="0 0 600 600" fill="none">
<path d="M415.535 183.323C415.535 190.63 415.535 198.092 415.535 205.399C415.38 226.854 409.472 234.317 388.175 239.603C374.34 243.023 360.505 245.977 346.514 249.242C332.835 252.507 332.524 252.973 335.166 266.033C337.809 278.937 340.296 291.841 343.25 304.745C346.359 318.737 348.38 319.825 363.148 316.716C377.138 313.762 390.974 310.341 404.964 307.854C424.24 304.278 433.412 309.098 441.029 327.443C451.755 353.251 462.792 378.904 474.762 404.245C483.157 421.969 479.115 434.251 462.326 444.512C448.335 453.063 434.189 461.303 419.888 469.076C398.28 480.736 385.377 476.694 373.097 454.773C366.723 443.268 360.66 431.452 353.976 420.103C348.224 410.309 346.203 409.687 336.41 414.973C323.507 421.969 310.605 429.276 298.013 436.894C288.22 442.957 287.753 444.512 293.039 454.773C299.568 467.366 306.874 479.648 313.403 492.241C323.974 512.608 320.554 525.667 301.122 537.483C287.598 545.723 273.918 553.652 260.083 561.27C239.563 572.308 225.106 567.489 215.313 546.034C194.793 501.414 175.828 456.328 159.35 410.153C158.262 407.199 157.329 404.09 156.396 401.136C149.867 377.971 157.485 364.756 180.958 359.004C195.726 355.428 210.649 352.007 225.573 348.742C233.19 347.032 235.988 343.457 234.122 335.372C230.703 320.447 228.371 305.366 224.795 290.441C222.153 278.781 220.598 278.159 208.007 280.958C193.083 284.223 178.004 287.176 163.392 291.374C142.717 297.282 126.239 282.201 125.151 263.39C122.974 228.72 119.71 194.05 120.021 159.225C120.021 153.939 120.332 148.653 121.264 143.522C123.13 131.862 130.281 125.022 141.629 121.912C155.153 118.336 168.833 119.736 182.512 119.736C219.044 119.736 213.603 121.135 214.225 88.3307C214.225 79.3134 214.225 70.4516 214.846 61.4344C216.09 42.6226 225.262 33.7608 243.916 33.2944C261.327 32.9834 278.737 32.828 296.148 33.2944C314.336 33.7608 324.44 43.3999 325.684 61.5899C326.461 73.0946 325.995 84.7549 325.995 96.4151C325.995 124.244 325.373 121.757 352.266 121.912C361.749 121.912 371.231 121.912 380.714 121.912C403.099 122.379 413.359 132.329 414.447 154.872C414.913 164.355 414.447 173.839 414.447 183.323H415.38H415.535Z" fill="#FEDD00"/>
</svg>