<svg xmlns="http://www.w3.org/2000/svg" width="600" height="600" fill="none" viewBox="0 0 600 600"><g clip-path="url(#clip0_3846_162)"><path fill="#fedd00" d="m512.06 279.275-13.598 21.857c-13.369 21.147-23.814 24.897-48.156 17.013-15.805-5.136-31.322-10.733-47.185-16.118-15.556-5.194-16.151-4.923-21.578 9.634-5.332 14.404-10.818 28.712-15.841 43.308-5.541 15.768-4.21 18.091 12.326 24.108 15.672 5.693 31.477 10.829 46.861 16.983 21.288 8.333 27.4 18.754 23.641 41.61-5.276 32.159-10.149 64.355-13.907 96.818-2.606 22.719-14.173 32.39-37.115 32.208-19.119-.152-38.201-.707-57.149-1.819-28.575-1.765-38.86-13.715-37.517-42.983.776-15.316 2.052-30.749 2.424-46.103.338-13.241-1.279-15.101-14.232-15.9-17.084-1.02-34.359-1.733-51.518-1.946-13.431-.029-14.851 1.223-15.938 14.637-1.292 16.49-1.624 33.151-2.916 49.641-2.079 26.675-13.509 37.499-40.026 37.229a1261 1261 0 0 1-55.284-1.727c-27.115-1.711-38.46-15.387-34.942-42.662 7.168-56.816 16.161-113.137 28.288-169.004.742-3.595 1.734-7.248 2.63-10.747 7.804-26.957 23.485-35.349 50.269-26.586a2408 2408 0 0 1 50.493 17.321c8.595 2.999 13.568 1.182 16.701-7.971 5.807-16.884 12.787-33.252 18.44-50.231 4.566-13.172 3.41-14.746-10.781-19.731-16.786-5.959-33.535-12.322-50.588-17.167-24.109-6.886-31.135-31.966-20.625-51.262 19.2-35.667 37.323-72.003 59.081-106.292 3.256-5.234 6.82-10.276 10.903-14.78 9.029-10.396 20.323-12.765 33.474-8.853 15.592 4.79 28.275 14.6 41.819 23.027 36.169 22.501 29.92 20.536 50.742-11.56 5.554-8.928 11.012-17.702 17.182-26.247 12.819-17.86 27.358-20.984 46.114-9.956 17.43 10.416 34.764 20.987 51.715 32.173 17.72 11.664 21.787 27.432 11.814 46.207-6.317 11.87-13.961 23.127-21.143 34.672-17.141 27.553-16.225 24.707 10.306 41.426l28.166 17.522c21.876 14.25 25.905 30.421 13.097 53.411-5.379 9.677-11.683 18.78-17.524 28.169l.923.575Z"/></g><defs><clipPath id="clip0_3846_162"><path fill="#fff" d="M0 0h600v600H0Z"/></clipPath></defs></svg>