<svg width="600" height="600" viewBox="0 0 600 600" fill="none" xmlns="http://www.w3.org/2000/svg">
<g clip-path="url(#clip0_3846_162)">
<path d="M512.06 279.275C507.559 286.509 502.963 293.898 498.462 301.132C485.093 322.279 474.648 326.029 450.306 318.145C434.501 313.009 418.984 307.412 403.121 302.027C387.565 296.833 386.97 297.104 381.543 311.661C376.211 326.065 370.725 340.373 365.702 354.969C360.161 370.737 361.492 373.06 378.028 379.077C393.7 384.77 409.505 389.906 424.889 396.06C446.177 404.393 452.289 414.814 448.53 437.67C443.254 469.829 438.381 502.025 434.623 534.488C432.017 557.207 420.45 566.878 397.508 566.696C378.389 566.544 359.307 565.989 340.359 564.877C311.784 563.112 301.499 551.162 302.842 521.894C303.618 506.578 304.894 491.145 305.266 475.791C305.604 462.55 303.987 460.69 291.034 459.891C273.95 458.871 256.675 458.158 239.516 457.945C226.085 457.916 224.665 459.168 223.578 472.582C222.286 489.072 221.954 505.733 220.662 522.223C218.583 548.898 207.153 559.722 180.636 559.452C162.17 559.28 143.742 558.704 125.352 557.725C98.2365 556.014 86.8914 542.338 90.4101 515.063C97.5775 458.247 106.571 401.926 118.698 346.059C119.44 342.464 120.432 338.811 121.328 335.312C129.132 308.355 144.813 299.963 171.597 308.726C188.421 314.282 205.304 320.087 222.09 326.047C230.685 329.046 235.658 327.229 238.791 318.076C244.598 301.192 251.578 284.824 257.231 267.845C261.797 254.673 260.641 253.099 246.45 248.114C229.664 242.155 212.915 235.792 195.862 230.947C171.753 224.061 164.727 198.981 175.237 179.685C194.437 144.018 212.56 107.682 234.318 73.393C237.574 68.1594 241.138 63.1173 245.221 58.6122C254.25 48.2165 265.544 45.8482 278.695 49.7595C294.287 54.5494 306.97 64.3609 320.514 72.787C356.683 95.2884 350.434 93.3225 371.256 61.2265C376.81 52.2987 382.268 43.5247 388.438 34.9799C401.257 17.1205 415.796 13.9959 434.552 25.0242C451.982 35.4404 469.316 46.0106 486.267 57.1965C503.987 68.8612 508.054 84.6286 498.081 103.404C491.764 115.274 484.12 126.531 476.938 138.076C459.797 165.629 460.713 162.783 487.244 179.502C496.633 185.343 506.022 191.184 515.41 197.024C537.286 211.274 541.315 227.445 528.507 250.435C523.128 260.112 516.824 269.215 510.983 278.604L511.906 279.179L512.06 279.275Z" fill="#FEDD00"/>
</g>
<defs>
<clipPath id="clip0_3846_162">
<rect width="600" height="600" fill="white"/>
</clipPath>
</defs>
</svg>
